<svg width="72" height="72" viewBox="0 0 72 72" fill="none" xmlns="http://www.w3.org/2000/svg">
<mask id="mask0_74_625" style="mask-type:alpha" maskUnits="userSpaceOnUse" x="6" y="6" width="58" height="59">
<path fill-rule="evenodd" clip-rule="evenodd" d="M50.7793 22.5L39.706 22.5L29.7527 22.5L18.6794 22.5C17.9609 22.5 17.3433 23.0095 17.2067 23.715L10.5293 58.215C10.3502 59.1406 11.0592 60 12.002 60L57.4567 60C58.3995 60 59.1085 59.1406 58.9294 58.215L52.2519 23.715C52.1154 23.0095 51.4978 22.5 50.7793 22.5ZM50.7793 18L43.2172 18C43.5489 17.0617 43.7293 16.0519 43.7293 15C43.7293 10.0294 39.6999 6 34.7293 6C29.7588 6 25.7293 10.0294 25.7293 15C25.7293 16.0519 25.9098 17.0617 26.2415 18L18.6794 18C15.8053 18 13.3349 20.0381 12.7887 22.8599L6.11129 57.3599C5.3947 61.0622 8.23088 64.5 12.002 64.5L57.4567 64.5C61.2278 64.5 64.064 61.0622 63.3474 57.3599L56.6699 22.8599C56.1238 20.0381 53.6534 18 50.7793 18ZM39.2293 15C39.2293 16.1501 38.7999 17.201 38.0842 18L31.3744 18C30.6588 17.201 30.2293 16.1501 30.2293 15C30.2293 12.5147 32.2441 10.5 34.7293 10.5C37.2146 10.5 39.2293 12.5147 39.2293 15ZM34.6476 45C33.8962 45 33.2428 44.875 32.6875 44.625C32.1321 44.375 31.6993 44 31.3889 43.5C31.0785 42.9917 30.907 42.3583 30.8744 41.6C30.8662 41.2417 30.8621 40.8833 30.8621 40.525C30.8621 40.1667 30.8662 39.8042 30.8744 39.4375C30.907 38.6875 31.0785 38.0583 31.3889 37.55C31.7074 37.0333 32.1444 36.6458 32.6997 36.3875C33.2551 36.1292 33.9044 36 34.6476 36C35.3827 36 36.0279 36.1292 36.5832 36.3875C37.1468 36.6458 37.5878 37.0333 37.9063 37.55C38.2248 38.0583 38.3964 38.6875 38.4209 39.4375C38.4372 39.8042 38.4454 40.1667 38.4454 40.525C38.4454 40.8833 38.4372 41.2417 38.4209 41.6C38.3882 42.3583 38.2167 42.9917 37.9063 43.5C37.596 44 37.1631 44.375 36.6077 44.625C36.0524 44.875 35.399 45 34.6476 45ZM34.6476 43.2C35.0805 43.2 35.4317 43.0667 35.7012 42.8C35.9789 42.5333 36.1259 42.1083 36.1422 41.525C36.1585 41.1583 36.1667 40.8125 36.1667 40.4875C36.1667 40.1625 36.1585 39.825 36.1422 39.475C36.1259 39.0833 36.0524 38.7667 35.9217 38.525C35.7992 38.275 35.6277 38.0917 35.4072 37.975C35.1866 37.8583 34.9335 37.8 34.6476 37.8C34.3699 37.8 34.1208 37.8583 33.9003 37.975C33.6798 38.0917 33.5042 38.275 33.3735 38.525C33.2428 38.7667 33.1693 39.0833 33.153 39.475C33.1448 39.825 33.1408 40.1625 33.1408 40.4875C33.1408 40.8125 33.1448 41.1583 33.153 41.525C33.1775 42.1083 33.3245 42.5333 33.594 42.8C33.8636 43.0667 34.2147 43.2 34.6476 43.2ZM25.7518 44.875C25.662 44.875 25.5885 44.8458 25.5313 44.7875C25.4741 44.7292 25.4455 44.6542 25.4455 44.5625L25.4455 38.0875L23.2649 38.0875C23.175 38.0875 23.1015 38.0583 23.0444 38C22.9872 37.9333 22.9586 37.8583 22.9586 37.775L22.9586 36.4375C22.9586 36.3458 22.9872 36.2708 23.0444 36.2125C23.1015 36.1542 23.175 36.125 23.2649 36.125L29.8558 36.125C29.9457 36.125 30.0192 36.1542 30.0763 36.2125C30.1335 36.2708 30.1621 36.3458 30.1621 36.4375L30.1621 37.775C30.1621 37.8583 30.1335 37.9333 30.0763 38C30.0192 38.0583 29.9457 38.0875 29.8558 38.0875L27.6752 38.0875L27.6752 44.5625C27.6752 44.6542 27.6466 44.7292 27.5894 44.7875C27.5323 44.8458 27.4587 44.875 27.3689 44.875L25.7518 44.875ZM39.9512 44.7875C40.0083 44.8458 40.0818 44.875 40.1717 44.875L41.6418 44.875C41.7316 44.875 41.8051 44.8458 41.8623 44.7875C41.9195 44.7292 41.948 44.6542 41.948 44.5625L41.948 40.0125L44.9372 44.6375C44.9536 44.6625 44.9903 44.7083 45.0475 44.775C45.1128 44.8417 45.2108 44.875 45.3415 44.875L46.6523 44.875C46.7422 44.875 46.8157 44.8458 46.8729 44.7875C46.93 44.7208 46.9586 44.6458 46.9586 44.5625L46.9586 36.4375C46.9586 36.3458 46.93 36.2708 46.8729 36.2125C46.8157 36.1542 46.7422 36.125 46.6524 36.125L45.1823 36.125C45.0924 36.125 45.0189 36.1542 44.9617 36.2125C44.9046 36.2708 44.876 36.3458 44.876 36.4375L44.876 41.175L41.8868 36.3625C41.8704 36.3292 41.8296 36.2833 41.7643 36.225C41.7071 36.1583 41.6091 36.125 41.4703 36.125L40.1717 36.125C40.0818 36.125 40.0083 36.1542 39.9512 36.2125C39.894 36.2708 39.8654 36.3458 39.8654 36.4375L39.8654 44.5625C39.8654 44.6542 39.894 44.7292 39.9512 44.7875Z" fill="#124D87"/>
</mask>
<g mask="url(#mask0_74_625)">
<rect x="4" y="3" width="63" height="76" fill="#3EACD2"/>
<rect x="20" y="33" width="31" height="16" fill="#D17300"/>
</g>
</svg>
