<svg width="72" height="72" viewBox="0 0 72 72" fill="none" xmlns="http://www.w3.org/2000/svg">
<mask id="mask0_74_860" style="mask-type:alpha" maskUnits="userSpaceOnUse" x="5" y="6" width="64" height="60">
<path fill-rule="evenodd" clip-rule="evenodd" d="M53.2499 15.4359C49.9928 15.4359 47.3525 18.0763 47.3525 21.3333C47.3525 24.5904 49.9928 27.2308 53.2499 27.2308C56.507 27.2308 59.1474 24.5904 59.1474 21.3333C59.1474 18.0763 56.507 15.4359 53.2499 15.4359ZM49.7114 21.3333C49.7115 19.3791 51.2957 17.7949 53.2499 17.7949C55.2042 17.7949 56.7884 19.3791 56.7884 21.3333C56.7884 23.2876 55.2042 24.8718 53.2499 24.8718C51.2957 24.8718 49.7114 23.2876 49.7114 21.3333Z" fill="#124D87"/>
<path fill-rule="evenodd" clip-rule="evenodd" d="M57.5747 33.4243C57.5747 35.215 56.123 36.6667 54.3323 36.6667H52.1674C50.3767 36.6667 48.9251 35.215 48.9251 33.4243V33.0201C48.9251 32.8961 48.8312 32.6986 48.5794 32.5941C48.3369 32.4934 48.1378 32.5616 48.0443 32.655L47.7583 32.941C46.4921 34.2072 44.4391 34.2072 43.1729 32.941L41.6422 31.4103C40.3759 30.144 40.3759 28.0911 41.6422 26.8248L41.9282 26.5388C42.0216 26.4454 42.0898 26.2463 41.9891 26.0038C41.8846 25.752 41.6871 25.6581 41.5632 25.6581H41.1589C39.3682 25.6581 37.9165 24.2065 37.9165 22.4158L37.9165 20.2509C37.9165 18.4602 39.3682 17.0086 41.1589 17.0085H41.7127C41.7359 17.0085 41.7689 17.0017 41.8104 16.9715C41.8544 16.9395 41.8986 16.8865 41.9261 16.8175C41.9832 16.6745 41.9346 16.579 41.9029 16.5474L41.3865 16.031C40.0158 14.6603 40.0158 12.438 41.3865 11.0673L42.6571 9.79674C43.9625 8.49126 46.0791 8.49126 47.3846 9.79674L47.6298 10.0419C47.7854 10.1975 48.09 10.2822 48.4319 10.1349C48.7743 9.98744 48.9251 9.7096 48.9251 9.50331V9.24233C48.9251 7.45164 50.3767 6 52.1674 6L54.3323 6C56.123 6 57.5747 7.45164 57.5747 9.24233V9.64662C57.5747 9.77055 57.6686 9.96802 57.9203 10.0726C58.1628 10.1732 58.3619 10.1051 58.4553 10.0117L58.7413 9.72564C60.0076 8.45941 62.0605 8.45941 63.3268 9.72564L64.8575 11.2564C66.1238 12.5226 66.1238 14.5756 64.8575 15.8418L64.5715 16.1278C64.4781 16.2212 64.41 16.4204 64.5106 16.6628C64.6152 16.9146 64.8127 17.0085 64.9366 17.0085H65.3409C67.1316 17.0085 68.5832 18.4602 68.5832 20.2509V22.4158C68.5832 24.2065 67.1316 25.6581 65.3409 25.6581H65.0799C64.8736 25.6581 64.5958 25.8089 64.4483 26.1513C64.301 26.4932 64.3857 26.7978 64.5413 26.9534L64.593 27.0051C65.7597 28.1718 65.7597 30.0633 64.593 31.23L62.813 33.0101C61.5849 34.2382 59.5937 34.2382 58.3656 33.0101L58.0359 32.6803C58.0042 32.6486 57.9087 32.6 57.7657 32.6571C57.6967 32.6846 57.6438 32.7288 57.6117 32.7728C57.5815 32.8143 57.5747 32.8473 57.5747 32.8705V33.4243ZM55.2157 33.4243C55.2157 33.9122 54.8202 34.3077 54.3323 34.3077H52.1674C51.6796 34.3077 51.2841 33.9122 51.2841 33.4243V33.0201C51.2841 31.7984 50.4749 30.8269 49.4839 30.4154C48.4831 29.9999 47.2347 30.1285 46.3763 30.9869L46.0903 31.273C45.7453 31.6179 45.186 31.6179 44.841 31.273L43.3102 29.7422C42.9652 29.3972 42.9652 28.8379 43.3102 28.4929L43.5963 28.2068C44.4547 27.3484 44.5833 26.1 44.1678 25.0993C43.7563 24.1083 42.7848 23.2991 41.5632 23.2991H41.1589C40.671 23.2991 40.2755 22.9037 40.2755 22.4158V20.2509C40.2755 19.763 40.671 19.3675 41.1589 19.3675H41.7127C42.8427 19.3675 43.7463 18.6208 44.1171 17.6919C44.4823 16.7767 44.3449 15.6533 43.5709 14.8793L43.0546 14.3629C42.6051 13.9135 42.6051 13.1848 43.0546 12.7353L44.3251 11.4648C44.7094 11.0805 45.3323 11.0805 45.7166 11.4648L45.9617 11.7099C46.9049 12.6531 48.2798 12.769 49.3651 12.3015C50.4147 11.8494 51.2841 10.8126 51.2841 9.50331V9.24233C51.2841 8.75447 51.6796 8.35897 52.1674 8.35897H54.3323C54.8202 8.35897 55.2157 8.75447 55.2157 9.24233V9.64662C55.2157 10.8683 56.0249 11.8398 57.0158 12.2512C58.0166 12.6667 59.2649 12.5381 60.1234 11.6797L60.4094 11.3937C60.7544 11.0487 61.3137 11.0487 61.6587 11.3937L63.1895 12.9245C63.5345 13.2694 63.5345 13.8288 63.1895 14.1738L62.9035 14.4598C62.0451 15.3182 61.9165 16.5666 62.332 17.5674C62.7434 18.5583 63.715 19.3675 64.9366 19.3675H65.3409C65.8287 19.3675 66.2242 19.763 66.2242 20.2509V22.4158C66.2242 22.9037 65.8287 23.2991 65.3409 23.2991H65.0799C63.7706 23.2991 62.7338 24.1685 62.2817 25.2181C61.8142 26.3034 61.9301 27.6783 62.8733 28.6215L62.925 28.6732C63.1704 28.9186 63.1704 29.3165 62.925 29.5619L61.1449 31.342C60.838 31.6489 60.3405 31.6489 60.0337 31.342L59.7039 31.0123C58.9299 30.2383 57.8065 30.1009 56.8913 30.4661C55.9624 30.8369 55.2157 31.7405 55.2157 32.8705V33.4243Z" fill="#124D87"/>
<path fill-rule="evenodd" clip-rule="evenodd" d="M53.2499 15.4359C49.9928 15.4359 47.3525 18.0763 47.3525 21.3333C47.3525 24.5904 49.9928 27.2308 53.2499 27.2308C56.507 27.2308 59.1474 24.5904 59.1474 21.3333C59.1474 18.0763 56.507 15.4359 53.2499 15.4359ZM49.7114 21.3333C49.7115 19.3791 51.2957 17.7949 53.2499 17.7949C55.2042 17.7949 56.7884 19.3791 56.7884 21.3333C56.7884 23.2876 55.2042 24.8718 53.2499 24.8718C51.2957 24.8718 49.7114 23.2876 49.7114 21.3333Z" fill="#124D87"/>
<path d="M13.2906 14.5833C9.26404 14.5833 5.99988 17.8034 5.99988 21.7756L5.99988 47.9295C5.99988 51.9017 9.26403 55.1218 13.2906 55.1218H32.5115V61.6603H23.8952C22.7971 61.6603 21.9069 62.5385 21.9069 63.6218C21.9069 64.7051 22.7971 65.5833 23.8952 65.5833H45.1045C46.2027 65.5833 47.0929 64.7051 47.0929 63.6218C47.0929 62.5385 46.2027 61.6603 45.1045 61.6603H36.4883V55.1218H55.7092C59.7357 55.1218 62.9999 51.9017 62.9999 47.9295V35.2384C61.7728 35.9035 60.3289 36.0242 59.0231 35.6005V47.9295C59.0231 49.735 57.5394 51.1987 55.7092 51.1987H13.2906C11.4603 51.1987 9.97662 49.735 9.97662 47.9295L9.97663 21.7756C9.97663 19.9701 11.4603 18.5064 13.2906 18.5064H36.3023C36.7529 17.252 37.6757 16.2228 38.8563 15.6329C38.715 15.2926 38.6098 14.9408 38.5407 14.5833L13.2906 14.5833Z" fill="#124D87"/>
</mask>
<g mask="url(#mask0_74_860)">
<rect y="4" width="72" height="62" fill="#3EACD2"/>
<path d="M39.5 10.5L52 4L62 5L73.5 22.5L66 32.5L63.5 34.5H60.5H58.5L57.5 36.5L47.5 41L37.5 30.5L35 24.5L37.5 18L39.5 16V14V10.5Z" fill="#D17300"/>
</g>
</svg>
