<svg width="48" height="48" viewBox="0 0 48 48" fill="none" xmlns="http://www.w3.org/2000/svg">
<path fill-rule="evenodd" clip-rule="evenodd" d="M10.9393 28.9393C11.5251 28.3536 12.4748 28.3536 13.0606 28.9393L22.2344 38.1131C23.2096 39.0883 24.7903 39.0883 25.7677 38.1109L34.9393 28.9393C35.5251 28.3536 36.4748 28.3536 37.0606 28.9393C37.6464 29.5251 37.6464 30.4749 37.0606 31.0607L27.889 40.2322C25.7422 42.3791 22.262 42.3834 20.113 40.2344L10.9393 31.0607C10.3535 30.4749 10.3535 29.5251 10.9393 28.9393Z" fill="#F7E6C9"/>
<path fill-rule="evenodd" clip-rule="evenodd" d="M10.9393 16.9393C11.5251 16.3536 12.4748 16.3536 13.0606 16.9393L22.2344 26.1131C23.2096 27.0883 24.7903 27.0883 25.7677 26.1109L34.9393 16.9393C35.5251 16.3536 36.4748 16.3536 37.0606 16.9393C37.6464 17.5251 37.6464 18.4749 37.0606 19.0607L27.889 28.2322C25.7422 30.3791 22.262 30.3834 20.113 28.2344L10.9393 19.0607C10.3535 18.4749 10.3535 17.5251 10.9393 16.9393Z" fill="#F7E6C9"/>
<path fill-rule="evenodd" clip-rule="evenodd" d="M10.9393 4.93934C11.5251 4.35355 12.4748 4.35355 13.0606 4.93934L22.2344 14.1131C23.2096 15.0883 24.7903 15.0883 25.7677 14.1109L34.9393 4.93934C35.5251 4.35355 36.4748 4.35355 37.0606 4.93934C37.6464 5.52513 37.6464 6.47487 37.0606 7.06066L27.889 16.2322C25.7422 18.3791 22.262 18.3834 20.113 16.2344L10.9393 7.06066C10.3535 6.47487 10.3535 5.52513 10.9393 4.93934Z" fill="#F7E6C9"/>
</svg>
