<svg width="24" height="24" viewBox="0 0 24 24" fill="none" xmlns="http://www.w3.org/2000/svg">
<path fill-rule="evenodd" clip-rule="evenodd" d="M12 3.75C8.54822 3.75 5.75 6.54822 5.75 10C5.75 10.5434 5.92984 11.2296 6.27835 12.0268C6.62283 12.8149 7.1097 13.6615 7.6706 14.5115C8.79238 16.2114 10.1709 17.8659 11.1805 19.0059C11.6242 19.5069 12.3758 19.5069 12.8195 19.0059C13.8291 17.8659 15.2076 16.2114 16.3294 14.5115C16.8903 13.6615 17.3772 12.8149 17.7216 12.0268C18.0702 11.2296 18.25 10.5434 18.25 10C18.25 6.54822 15.4518 3.75 12 3.75ZM4.25 10C4.25 5.71979 7.71979 2.25 12 2.25C16.2802 2.25 19.75 5.71979 19.75 10C19.75 10.8388 19.4824 11.7438 19.0961 12.6276C18.7057 13.5207 18.1703 14.4453 17.5814 15.3377C16.4036 17.1224 14.9726 18.8372 13.9425 20.0004C12.9019 21.1754 11.0981 21.1754 10.0575 20.0004C9.02738 18.8372 7.59643 17.1224 6.41864 15.3377C5.82975 14.4453 5.29431 13.5207 4.90392 12.6276C4.51757 11.7438 4.25 10.8388 4.25 10Z" fill="#3EACD2"/>
<path fill-rule="evenodd" clip-rule="evenodd" d="M12 7.75C10.7574 7.75 9.75 8.75736 9.75 10C9.75 11.2426 10.7574 12.25 12 12.25C13.2426 12.25 14.25 11.2426 14.25 10C14.25 8.75736 13.2426 7.75 12 7.75ZM8.25 10C8.25 7.92893 9.92893 6.25 12 6.25C14.0711 6.25 15.75 7.92893 15.75 10C15.75 12.0711 14.0711 13.75 12 13.75C9.92893 13.75 8.25 12.0711 8.25 10Z" fill="#3EACD2"/>
</svg>
