<svg width="48" height="48" viewBox="0 0 48 48" fill="none" xmlns="http://www.w3.org/2000/svg">
<mask id="mask0_105_168" style="mask-type:alpha" maskUnits="userSpaceOnUse" x="2" y="4" width="42" height="38">
<path d="M32.0001 33C32.0001 32.4477 31.5524 32 31.0001 32H29.0001C28.4478 32 28.0001 32.4477 28.0001 33V35C28.0001 35.5523 28.4478 36 29.0001 36H31.0001C31.5524 36 32.0001 35.5523 32.0001 35V33Z" fill="#3EACD2"/>
<path d="M38.0001 33C38.0001 32.4477 37.5524 32 37.0001 32H35.0001C34.4478 32 34.0001 32.4477 34.0001 33V35C34.0001 35.5523 34.4478 36 35.0001 36H37.0001C37.5524 36 38.0001 35.5523 38.0001 35V33Z" fill="#3EACD2"/>
<path fill-rule="evenodd" clip-rule="evenodd" d="M11.0001 4.5C9.06707 4.5 7.50007 6.067 7.50007 8V38.5L4.00007 38.5C3.17164 38.5 2.50007 39.1716 2.50007 40C2.50007 40.8285 3.17165 41.5 4.00007 41.5L9.00007 41.5H17.0001L24.0001 41.5H42.0001C42.8285 41.5 43.5001 40.8284 43.5001 40V20C43.5001 19.1716 42.8285 18.5 42.0001 18.5H36.0001C35.6022 18.5 35.2207 18.658 34.9394 18.9393C34.6581 19.2206 34.5001 19.6022 34.5001 20V26.5H32.1807L29.1289 23.0122C28.8441 22.6867 28.4326 22.5 28.0001 22.5H24.0001C23.1716 22.5 22.5001 23.1716 22.5001 24V38.5L18.5001 38.5V9.5H29.5001V13C29.5001 13.8284 30.1716 14.5 31.0001 14.5C31.8285 14.5 32.5001 13.8284 32.5001 13V9.5H37.0001C37.8285 9.5 38.5001 8.82843 38.5001 8C38.5001 7.17157 37.8285 6.5 37.0001 6.5H18.1633C17.6015 5.31753 16.3963 4.5 15.0001 4.5H11.0001ZM10.5001 12.3787L15.2878 7.591C15.2064 7.53367 15.1072 7.5 15.0001 7.5H11.0001C10.7239 7.5 10.5001 7.72386 10.5001 8V12.3787ZM10.5001 19.6213V28.3787L14.8788 24L10.5001 19.6213ZM15.5001 27.6213L11.1214 32L15.5001 36.3787V27.6213ZM13.3788 38.5L10.5001 35.6213V38.5H13.3788ZM15.5001 20.3787V11.6213L11.1214 16L15.5001 20.3787ZM37.5001 21.5V28C37.5001 28.8284 36.8285 29.5 36.0001 29.5H31.5001C31.0675 29.5 30.656 29.3133 30.3712 28.9878L27.3194 25.5H25.5001V38.5H40.5001V21.5H37.5001Z" fill="#3EACD2"/>
<path fill-rule="evenodd" clip-rule="evenodd" d="M31.0001 32H29.0001C28.4478 32 28.0001 32.4477 28.0001 33V35C28.0001 35.5523 28.4478 36 29.0001 36H31.0001C31.5524 36 32.0001 35.5523 32.0001 35V33C32.0001 32.4477 31.5524 32 31.0001 32ZM38.0001 33C38.0001 32.4477 37.5524 32 37.0001 32H35.0001C34.4478 32 34.0001 32.4477 34.0001 33V35C34.0001 35.5523 34.4478 36 35.0001 36H37.0001C37.5524 36 38.0001 35.5523 38.0001 35V33Z" fill="#3EACD2"/>
</mask>
<g mask="url(#mask0_105_168)">
<path d="M2.5 4C2.22386 4 2 4.22386 2 4.5L2 41.5C2 41.7761 2.22386 42 2.5 42L43.5 42C43.7761 42 44 41.7761 44 41.5L44 4.5C44 4.22386 43.7761 4 43.5 4L2.5 4Z" fill="#3EACD2"/>
<path d="M15.5 8C15.5 7.72386 15.2761 7.5 15 7.5H11C10.7239 7.5 10.5 7.72386 10.5 8V38C10.5 38.2761 10.7239 38.5 11 38.5H15C15.2761 38.5 15.5 38.2761 15.5 38V8Z" fill="#D17300"/>
<path d="M26.5 31C26.2239 31 26 31.2239 26 31.5L26 36.5C26 36.7761 26.2239 37 26.5 37L39.5 37C39.7761 37 40 36.7761 40 36.5L40 31.5C40 31.2239 39.7761 31 39.5 31L26.5 31Z" fill="#D17300"/>
</g>
</svg>
