<svg width="48" height="48" viewBox="0 0 48 48" fill="none" xmlns="http://www.w3.org/2000/svg">
<mask id="mask0_105_228" style="mask-type:alpha" maskUnits="userSpaceOnUse" x="10" y="4" width="30" height="38">
<path fill-rule="evenodd" clip-rule="evenodd" d="M30.4743 4.57695C29.6884 4.31498 28.8389 4.73972 28.577 5.52564L27.4887 8.79055C27.1484 9.8114 26.193 10.5 25.117 10.5H22.883C21.807 10.5 20.8516 9.8114 20.5113 8.79055L19.423 5.52564C19.1611 4.73972 18.3116 4.31498 17.5257 4.57695C16.7397 4.83893 16.315 5.68841 16.577 6.47432L17.6653 9.73923C18.3733 11.8632 20.2915 13.3333 22.5 13.4867V16C22.5 17.4147 23.6133 18.3741 24.7257 18.5762C25.3513 18.6898 25.7836 18.9741 26.1141 19.5372C26.3181 19.8846 26.4505 20.2967 26.4887 20.7372C26.5446 21.3837 26.3823 22.0386 26.0736 22.5295C25.8779 22.8407 25.6251 23.0865 25.3625 23.2461C24.9241 23.5128 24.4062 23.5658 23.9545 23.4099C23.6913 23.319 23.4327 23.1573 23.2035 22.9213C22.6262 22.3271 21.6766 22.3133 21.0824 22.8906C20.5809 23.3777 20.4928 24.1301 20.8245 24.7102L11.2045 30.7283C10.7662 31.0025 10.5 31.483 10.5 32V39C10.5 40.3807 11.6193 41.5 13 41.5H37C38.3807 41.5 39.5 40.3807 39.5 39V32C39.5 31.4848 39.2356 31.0056 38.7997 30.7309L28.5278 24.258C28.5569 24.2146 28.5853 24.1708 28.6132 24.1266C29.283 23.0614 29.5876 21.7507 29.4775 20.4786C29.4023 19.6098 29.1394 18.7647 28.7012 18.0182C28.2627 17.2714 27.6566 16.6378 26.9217 16.1908C26.4831 15.924 25.9443 15.7663 25.5 15.6714V13.4867C27.7085 13.3333 29.6267 11.8632 30.3347 9.73923L31.423 6.47432C31.685 5.68841 31.2603 4.83893 30.4743 4.57695ZM36.5 33.5H13.5V38.5H36.5V33.5ZM26.0314 26.2309L32.8061 30.5H17.2261L23.7237 26.4352C24.4997 26.5636 25.2937 26.4903 26.0314 26.2309Z" fill="#3EACD2"/>
</mask>
<g mask="url(#mask0_105_228)">
<path d="M10 3H40V42H10V3Z" fill="#3EACD2"/>
<path d="M10 30.5H40V42H10V30.5Z" fill="#D17300"/>
</g>
</svg>
