<svg width="17" height="16" viewBox="0 0 17 16" fill="none" xmlns="http://www.w3.org/2000/svg">
<path d="M8.8689 0C6.69412 0 6.42309 0.0105013 5.57198 0.0465058C4.71738 0.0885111 4.13931 0.221028 3.62924 0.419052C3.09541 0.620588 2.61195 0.936125 2.21256 1.34367C1.80388 1.74212 1.48817 2.22584 1.28795 2.76035C1.08992 3.27041 0.957408 3.84848 0.915402 4.70309C0.876897 5.55469 0.868896 5.82523 0.868896 8C0.868896 10.1748 0.879398 10.4458 0.915402 11.2969C0.957408 12.149 1.08992 12.7296 1.28795 13.2397C1.48948 13.7735 1.80502 14.257 2.21256 14.6563C2.61101 15.065 3.09474 15.3807 3.62924 15.5809C4.13931 15.7765 4.71988 15.9115 5.57198 15.9535C6.42359 15.992 6.69412 16 8.8689 16C11.0437 16 11.3147 15.9895 12.1658 15.9535C13.0179 15.9115 13.5985 15.776 14.1086 15.5809C14.6424 15.3794 15.1258 15.0639 15.5252 14.6563C15.9344 14.2583 16.2502 13.7745 16.4498 13.2397C16.6454 12.7296 16.7804 12.149 16.8224 11.2969C16.8609 10.4453 16.8689 10.1748 16.8689 8C16.8689 5.82523 16.8584 5.55419 16.8224 4.70309C16.7804 3.85098 16.6449 3.26741 16.4498 2.76035C16.2483 2.22651 15.9328 1.74305 15.5252 1.34367C15.1272 0.934462 14.6434 0.618667 14.1086 0.419052C13.5985 0.221028 13.0179 0.0885111 12.1658 0.0465058C11.3142 0.008001 11.0437 0 8.8689 0ZM8.8689 1.44018C11.0047 1.44018 11.2597 1.45068 12.1038 1.48669C12.8824 1.52319 13.3065 1.65321 13.588 1.76322C13.936 1.8917 14.2511 2.09619 14.5101 2.3618C14.7753 2.61974 14.979 2.93404 15.1062 3.28141C15.2162 3.56295 15.3462 3.987 15.3827 4.7656C15.4187 5.6097 15.4292 5.86523 15.4292 8.0005C15.4292 10.1358 15.4187 10.3913 15.3797 11.2354C15.3377 12.014 15.2077 12.4381 15.0982 12.7196C14.9467 13.0951 14.7776 13.3577 14.4986 13.6417C14.2387 13.9056 13.9239 14.1092 13.5765 14.2378C13.2984 14.3478 12.8684 14.4778 12.0868 14.5143C11.2382 14.5503 10.9882 14.5608 8.84689 14.5608C6.70563 14.5608 6.4561 14.5503 5.60649 14.5113C4.82789 14.4693 4.39834 14.3393 4.1168 14.2298C3.73676 14.0783 3.47622 13.9092 3.19719 13.6302C2.91565 13.3487 2.73663 13.0806 2.59861 12.7081C2.4866 12.4301 2.35858 12 2.31708 11.2184C2.28857 10.3798 2.27507 10.1198 2.27507 7.9885C2.27507 5.85823 2.28857 5.5977 2.31708 4.74859C2.35858 3.967 2.4866 3.53794 2.59861 3.25891C2.73663 2.87836 2.91615 2.61833 3.19719 2.33679C3.47572 2.05826 3.73676 1.87823 4.1168 1.73722C4.39834 1.6277 4.81739 1.49769 5.59899 1.45868C6.44759 1.42818 6.69763 1.41718 8.83589 1.41718L8.8689 1.44018ZM8.8689 3.89399C8.3295 3.89379 7.79535 3.99989 7.29698 4.20621C6.7986 4.41254 6.34577 4.71505 5.96436 5.09646C5.58295 5.47787 5.28044 5.93071 5.07411 6.42908C4.86778 6.92746 4.76169 7.4616 4.76188 8.001C4.76169 8.5404 4.86778 9.07454 5.07411 9.57292C5.28044 10.0713 5.58295 10.5241 5.96436 10.9055C6.34577 11.2869 6.7986 11.5895 7.29698 11.7958C7.79535 12.0021 8.3295 12.1082 8.8689 12.108C9.40829 12.1082 9.94244 12.0021 10.4408 11.7958C10.9392 11.5895 11.392 11.2869 11.7734 10.9055C12.1548 10.5241 12.4574 10.0713 12.6637 9.57292C12.87 9.07454 12.9761 8.5404 12.9759 8.001C12.9761 7.4616 12.87 6.92746 12.6637 6.42908C12.4574 5.93071 12.1548 5.47787 11.7734 5.09646C11.392 4.71505 10.9392 4.41254 10.4408 4.20621C9.94244 3.99989 9.40829 3.89379 8.8689 3.89399ZM8.8689 10.6678C7.39471 10.6678 6.20206 9.47518 6.20206 8.001C6.20206 6.52682 7.39471 5.33417 8.8689 5.33417C10.3431 5.33417 11.5357 6.52682 11.5357 8.001C11.5357 9.47518 10.3431 10.6678 8.8689 10.6678ZM14.1016 3.72997C14.1013 3.98483 13.9999 4.22917 13.8195 4.40929C13.6392 4.58941 13.3948 4.69059 13.1399 4.69059C13.0139 4.69059 12.8891 4.66577 12.7727 4.61754C12.6563 4.56931 12.5505 4.49863 12.4614 4.40952C12.3723 4.32041 12.3016 4.21462 12.2534 4.0982C12.2051 3.98177 12.1803 3.85699 12.1803 3.73097C12.1803 3.60495 12.2051 3.48016 12.2534 3.36374C12.3016 3.24731 12.3723 3.14152 12.4614 3.05241C12.5505 2.9633 12.6563 2.89262 12.7727 2.84439C12.8891 2.79617 13.0139 2.77135 13.1399 2.77135C13.6685 2.77135 14.1016 3.2014 14.1016 3.72997Z" fill="#3EACD2"/>
</svg>
