<svg width="48" height="48" viewBox="0 0 48 48" fill="none" xmlns="http://www.w3.org/2000/svg">
<path d="M20.1425 20.2211L15.1709 15.2652M20.1398 27.7761L15.1687 32.7326M27.7653 20.1293L32.7396 15.1759M27.7724 27.8638L32.7432 32.8204" stroke="#D17300" stroke-width="3"/>
<path d="M29.4 24C29.4 26.9823 26.9823 29.4 24 29.4C21.0177 29.4 18.6 26.9823 18.6 24C18.6 21.0177 21.0177 18.6 24 18.6C26.9823 18.6 29.4 21.0177 29.4 24Z" stroke="#3EACD2" stroke-width="3"/>
<path d="M16.8 36.6C16.8 39.5823 14.3823 42 11.4 42C8.41766 42 6 39.5823 6 36.6C6 33.6177 8.41766 31.2 11.4 31.2C14.3823 31.2 16.8 33.6177 16.8 36.6Z" stroke="#3EACD2" stroke-width="3"/>
<path d="M42 36.6C42 39.5823 39.5823 42 36.6 42C33.6177 42 31.2 39.5823 31.2 36.6C31.2 33.6177 33.6177 31.2 36.6 31.2C39.5823 31.2 42 33.6177 42 36.6Z" stroke="#3EACD2" stroke-width="3"/>
<path d="M42 11.4C42 14.3823 39.5823 16.8 36.6 16.8C33.6177 16.8 31.2 14.3823 31.2 11.4C31.2 8.41766 33.6177 6 36.6 6C39.5823 6 42 8.41766 42 11.4Z" stroke="#3EACD2" stroke-width="3"/>
<path d="M16.8 11.4C16.8 14.3823 14.3823 16.8 11.4 16.8C8.41766 16.8 6 14.3823 6 11.4C6 8.41766 8.41766 6 11.4 6C14.3823 6 16.8 8.41766 16.8 11.4Z" stroke="#3EACD2" stroke-width="3"/>
</svg>
