<svg width="24" height="24" viewBox="0 0 24 24" fill="none" xmlns="http://www.w3.org/2000/svg">
<path fill-rule="evenodd" clip-rule="evenodd" d="M5 6.75C4.47506 6.75 4.02569 7.07358 3.84049 7.53217C3.78213 7.67668 3.75 7.83459 3.75 8V17C3.75 17.6904 4.30964 18.25 5 18.25H19C19.6904 18.25 20.25 17.6904 20.25 17V8C20.25 7.83459 20.2179 7.67668 20.1595 7.53217C19.9743 7.07358 19.5249 6.75 19 6.75H5ZM2.25 8C2.25 6.48122 3.48122 5.25 5 5.25H19C20.5188 5.25 21.75 6.48122 21.75 8V17C21.75 18.5188 20.5188 19.75 19 19.75H5C3.48122 19.75 2.25 18.5188 2.25 17V8Z" fill="#3EACD2"/>
<path d="M5.31944 6.75H5C4.47506 6.75 4.02569 7.07358 3.84049 7.53217L10.3899 12.2623C10.8704 12.6093 11.4356 12.7829 12 12.7829C12.5644 12.7829 13.1296 12.6093 13.6101 12.2623L20.1595 7.53217C19.9743 7.07358 19.5249 6.75 19 6.75H18.6806L12.7319 11.0463C12.5134 11.2041 12.2571 11.2829 12 11.2829C11.7429 11.2829 11.4866 11.2041 11.2681 11.0463L5.31944 6.75Z" fill="#3EACD2"/>
</svg>
