<svg width="23" height="16" viewBox="0 0 23 16" fill="none" xmlns="http://www.w3.org/2000/svg">
<path d="M23.0002 7.93106C23.0002 7.87688 23.0002 7.81533 22.9977 7.74392C22.9952 7.54447 22.9903 7.32041 22.9854 7.08156C22.9657 6.39458 22.9312 5.71006 22.877 5.06494C22.8032 4.17605 22.6948 3.4349 22.5471 2.87842C22.3912 2.29769 22.0856 1.76805 21.6608 1.34244C21.2361 0.916822 20.7071 0.610147 20.1267 0.453062C19.4298 0.265928 18.0657 0.1502 16.1451 0.0787934C15.2316 0.0443213 14.2541 0.0221605 13.2766 0.00984903C12.9343 0.00492444 12.6167 0.0024623 12.331 0H11.6071C11.3215 0.0024623 11.0039 0.00492444 10.6616 0.00984903C9.68406 0.0221605 8.70653 0.0443213 7.79302 0.0787934C5.87243 0.152662 4.50586 0.26839 3.81149 0.453062C3.23088 0.609762 2.70166 0.916307 2.27685 1.34198C1.85204 1.76765 1.54657 2.2975 1.39105 2.87842C1.24085 3.4349 1.13497 4.17605 1.0611 5.06494C1.00693 5.71006 0.97246 6.39458 0.952762 7.08156C0.945375 7.32041 0.942913 7.54447 0.940451 7.74392C0.940451 7.81533 0.937988 7.87688 0.937988 7.93106V8.06894C0.937988 8.12311 0.937988 8.18467 0.940451 8.25608C0.942913 8.45552 0.947837 8.67959 0.952762 8.91844C0.97246 9.60542 1.00693 10.2899 1.0611 10.9351C1.13497 11.8239 1.24331 12.5651 1.39105 13.1216C1.70622 14.301 2.63205 15.2318 3.81149 15.5469C4.50586 15.7341 5.87243 15.8498 7.79302 15.9212C8.70653 15.9557 9.68406 15.9778 10.6616 15.9901C11.0039 15.9951 11.3215 15.9975 11.6071 16H12.331C12.6167 15.9975 12.9343 15.9951 13.2766 15.9901C14.2541 15.9778 15.2316 15.9557 16.1451 15.9212C18.0657 15.8473 19.4323 15.7316 20.1267 15.5469C21.3061 15.2318 22.2319 14.3035 22.5471 13.1216C22.6973 12.5651 22.8032 11.8239 22.877 10.9351C22.9312 10.2899 22.9657 9.60542 22.9854 8.91844C22.9928 8.67959 22.9952 8.45552 22.9977 8.25608C22.9977 8.18467 23.0002 8.12311 23.0002 8.06894V7.93106ZM21.2273 8.05909C21.2273 8.1108 21.2273 8.16743 21.2248 8.23392C21.2224 8.42598 21.2175 8.63773 21.2125 8.86673C21.1953 9.5217 21.1608 10.1767 21.1091 10.7849C21.0426 11.5777 20.9491 12.2278 20.8333 12.6636C20.6807 13.2324 20.2325 13.683 19.6662 13.8332C19.1491 13.9711 17.8466 14.0819 16.0762 14.1484C15.1799 14.1828 14.2147 14.205 13.2519 14.2173C12.9146 14.2222 12.6019 14.2247 12.3212 14.2247H11.617L10.6862 14.2173C9.72346 14.205 8.7607 14.1828 7.86196 14.1484C6.09157 14.0794 4.78656 13.9711 4.27194 13.8332C3.70561 13.6805 3.25747 13.2324 3.10481 12.6636C2.98908 12.2278 2.89551 11.5777 2.82903 10.7849C2.77732 10.1767 2.74531 9.5217 2.72562 8.86673C2.71823 8.63773 2.71577 8.42351 2.7133 8.23392C2.7133 8.16743 2.71084 8.10834 2.71084 8.05909V7.9409C2.71084 7.8892 2.71084 7.83256 2.7133 7.76608C2.71577 7.57402 2.72069 7.36226 2.72562 7.13327C2.74285 6.4783 2.77732 5.82333 2.82903 5.21514C2.89551 4.42228 2.98908 3.77224 3.10481 3.33641C3.25747 2.76762 3.70561 2.31702 4.27194 2.16682C4.78902 2.02893 6.09157 1.91813 7.86196 1.85165C8.75824 1.81717 9.72346 1.79501 10.6862 1.7827C11.0236 1.77778 11.3363 1.77532 11.617 1.77532H12.3212L13.2519 1.7827C14.2147 1.79501 15.1774 1.81717 16.0762 1.85165C17.8466 1.92059 19.1516 2.02893 19.6662 2.16682C20.2325 2.31948 20.6807 2.76762 20.8333 3.33641C20.9491 3.77224 21.0426 4.42228 21.1091 5.21514C21.1608 5.82333 21.1928 6.4783 21.2125 7.13327C21.2199 7.36226 21.2224 7.57648 21.2248 7.76608C21.2248 7.83256 21.2273 7.89166 21.2273 7.9409V8.05909ZM9.77763 11.2995L15.4902 7.97538L9.77763 4.70052V11.2995Z" fill="#3EACD2"/>
</svg>
