<svg width="72" height="72" viewBox="0 0 72 72" fill="none" xmlns="http://www.w3.org/2000/svg">
<mask id="mask0_74_677" style="mask-type:alpha" maskUnits="userSpaceOnUse" x="12" y="6" width="48" height="57">
<path fill-rule="evenodd" clip-rule="evenodd" d="M36 11.25C25.6447 11.25 17.25 19.6447 17.25 30C17.25 31.6302 17.7895 33.6887 18.8351 36.0805C19.8685 38.4447 21.3291 40.9845 23.0118 43.5344C26.3771 48.6341 30.5128 53.5978 33.5414 57.0177C34.8725 58.5207 37.1275 58.5207 38.4586 57.0177C41.4872 53.5978 45.6229 48.6341 48.9882 43.5344C50.6709 40.9845 52.1315 38.4447 53.1649 36.0805C54.2105 33.6887 54.75 31.6302 54.75 30C54.75 19.6447 46.3553 11.25 36 11.25ZM12.75 30C12.75 17.1594 23.1594 6.75 36 6.75C48.8406 6.75 59.25 17.1594 59.25 30C59.25 32.5165 58.4473 35.2314 57.2882 37.8829C56.1171 40.5621 54.5108 43.3358 52.7441 46.013C49.2107 51.3673 44.9179 56.5115 41.8274 60.0011C38.7056 63.5262 33.2944 63.5262 30.1726 60.0011C27.0821 56.5115 22.7893 51.3673 19.2559 46.013C17.4892 43.3358 15.8829 40.5621 14.7118 37.8829C13.5527 35.2314 12.75 32.5165 12.75 30Z" fill="#124D87"/>
<path fill-rule="evenodd" clip-rule="evenodd" d="M36 23.25C32.2721 23.25 29.25 26.2721 29.25 30C29.25 33.7279 32.2721 36.75 36 36.75C39.7279 36.75 42.75 33.7279 42.75 30C42.75 26.2721 39.7279 23.25 36 23.25ZM24.75 30C24.75 23.7868 29.7868 18.75 36 18.75C42.2132 18.75 47.25 23.7868 47.25 30C47.25 36.2132 42.2132 41.25 36 41.25C29.7868 41.25 24.75 36.2132 24.75 30Z" fill="#124D87"/>
</mask>
<g mask="url(#mask0_74_677)">
<rect x="12" y="6" width="49" height="60" fill="#3EACD2"/>
<circle cx="36.5" cy="30.5" r="12.5" fill="#D17300"/>
</g>
</svg>
